<svg xmlns="http://www.w3.org/2000/svg" xmlns:xlink="http://www.w3.org/1999/xlink" id="Camada_1" data-name="Camada 1" viewBox="0 0 1920 734"><defs><style>      .cls-1 {        fill: none;      }      .cls-1, .cls-2, .cls-3, .cls-4, .cls-5 {        stroke-width: 0px;      }      .cls-2 {        fill: url(#Gradiente_sem_nome_2);      }      .cls-2, .cls-4, .cls-5 {        fill-rule: evenodd;      }      .cls-3, .cls-4 {        fill: #073b56;      }      .cls-5 {        fill: #fff;      }    </style><linearGradient id="Gradiente_sem_nome_2" data-name="Gradiente sem nome 2" x1="987.76" y1="267.3" x2="1019.42" y2="416.1" gradientTransform="translate(0 734.11) scale(1 -1)" gradientUnits="userSpaceOnUse"><stop offset="0" stop-color="#009940"></stop><stop offset="1" stop-color="#a9c71d"></stop></linearGradient></defs><path class="cls-5" d="M1795.91,207.02c-18.18-12.12-36.93-23.16-56.26-33.1-38.58-19.87-79.38-35.86-120.76-49.62-41.34-13.77-83.79-25.35-126.82-34.74-170.92-38.04-347.36-49.09-522.68-44.1-87.66,2.76-174.79,9.93-261.34,22.05-86.55,11.58-172.03,28.11-255.82,51.27-83.25,22.59-165.39,51.81-238.76,92.61-36.39,20.4-71.14,44.1-98.13,72.21-13.23,13.77-24.81,29.22-32.52,44.68-7.71,15.46-11.58,31.98-11.58,47.97s4.41,31.98,12.69,47.4c8.28,15.46,19.87,30.33,33.63,44.1,27.57,27,62.32,50.16,99.24,70.02,74.43,39.15,157.15,66.15,240.94,87.13,84.37,20.94,170.38,35.86,256.93,45.75,86.55,9.89,174.21,14.88,261.88,15.99,174.79,1.11,351.23-13.77,521.57-55.68,42.45-10.47,84.9-22.59,125.7-37.51,41.34-14.34,81.6-31.45,120.18-52.38,18.75-9.93,37.51-21.51,55.15-33.63,17.64-12.69,34.17-26.46,49.09-41.92,14.88-14.88,28.11-31.98,36.93-50.74,9.36-18.18,14.88-38.58,14.88-58.98-.54-20.4-6.06-40.27-15.99-58.98-9.93-18.18-23.16-34.74-38.04-49.62-15.37-14.84-32.48-28.6-50.12-40.18Z"></path><path class="cls-4" d="M1632.7,286.93c18.18-15.99,42.45-22.59,67.26-22.59s51.85,6.64,67.8,27.57c10.47,13.77,13.77,31.45,12.12,48.51l-.54.54c-1.65,13.77-12.12,23.7-25.35,26.46h-1.11c12.12,14.34,17.64,32.52,12.69,54.57-2.76,14.34-13.77,30.33-24.28,40.27-21.51,20.4-50.16,29.22-79.38,29.22-25.92,0-52.92-6.64-68.38-29.22-1.11-1.65-2.23-3.3-3.3-4.95-18.18,23.16-46.86,34.74-81.07,34.74-25.92,0-46.86-7.17-60.67-20.94-4.95,10.47-15.46,16.53-27.57,16.53h-104.77c-18.75,0-31.45-15.46-27.57-33.63l7.17-35.28c-15.99,9.36-35.86,13.77-58.98,13.77h-3.3l-6.06,30.33c-3.3,15.46-15.46,24.81-30.87,24.81h-29.76c-6.06,0-12.12-1.65-16.53-4.95-4.95,3.3-11.05,4.95-17.64,4.95h-30.33c-11.58,0-22.59-7.17-25.92-18.75l-4.41-13.23-1.65,7.17c-2.76,14.34-15.99,24.81-30.87,24.81h-29.76c-6.64,0-12.69-2.23-17.64-6.06-4.95,3.87-11.58,6.06-18.75,6.06h-111.4c-18.75,0-31.45-15.46-28.11-33.63l20.94-99.24h-24.81l-22.59,108.06c-2.76,14.88-15.46,24.81-30.87,24.81h-29.22c-18.75,0-31.45-15.46-27.57-33.63l20.4-99.24h-14.88c-11.58,54.57-45.75,77.73-99.78,77.73h-3.3l-6.06,30.33c-3.3,14.88-15.46,24.81-30.87,24.81h-29.76c-8.28,0-15.46-2.76-20.4-7.71-5.52,4.95-12.69,7.71-20.94,7.71h-29.76c-12.69,0-22.59-7.17-26.46-17.1-4.95,10.47-15.46,17.1-28.11,17.1h-29.76c-12.12,0-21.51-6.64-25.35-15.99-17.64,13.77-40.8,20.4-66.73,20.4-54.57,0-86.55-31.45-74.97-87.13l12.69-62.85c10.47-51.27,49.09-78.31,100.36-78.31,31.98,0,57.33,11.05,69.49,32.52,17.64-23.16,45.21-32.52,78.84-32.52,25.35,0,52.92,5.52,67.26,27.57,3.3-13.77,14.88-22.59,29.22-23.16h59.51c18.75,0,39.15,3.3,54.03,13.23,5.52-8.28,14.88-13.23,25.92-13.23h136.17c5.52,0,11.05,1.65,15.46,4.41,4.95-2.76,10.47-4.41,15.99-4.41h111.94c7.17,0,13.23,2.23,18.18,6.06,4.95-3.87,11.58-6.06,18.18-6.06h57.91c31.98,0,55.68,8.82,68.38,27.04v-1.65c3.3-14.88,14.88-24.28,29.76-25.35h59.51c27.04,0,48.51,6.64,61.74,19.87,4.41-12.12,15.46-19.87,29.22-19.87h29.76c18.75,0,30.87,14.88,27.57,33.63l-20.94,99.24h40.8c1.65,0,3.3,0,4.95.54l22.59-108.6c3.3-14.88,15.46-24.81,30.87-24.81h29.76c14.34,0,25.35,9.36,27.57,22.05,3.87-13.23,15.46-22.05,29.76-22.05h29.76c13.77,0,23.66,7.71,27.53,18.71h0ZM1002.49,354.77h-2.23c.54,2.23.54,4.41.54,7.17l1.69-7.17ZM992.6,402.74h0ZM386.08,387.29l3.3-16.53-22.59,4.41h0c-15.99,2.76-30.33-6.64-33.63-20.94-1.11,3.87-2.23,7.71-2.23,9.93l-6.06,29.22c7.17-9.93,19.87-15.46,32.52-12.69l28.11,6.06c.58,0,.58.54.58.54h0Z"></path><path class="cls-5" d="M710.28,311.74l3.3-15.99c1.65-8.28,8.28-13.23,16.53-13.23h136.17c9.36,0,15.46,6.64,13.23,16.53l-5.52,28.11c-1.65,8.28-8.28,13.23-17.1,13.23h-36.93c-1.65,0-2.23,0-2.23,1.65l-24.28,118c-1.65,8.28-8.28,13.23-17.1,13.23h-29.22c-9.93,0-15.99-7.17-13.77-16.53l23.7-116.35h-35.86c-3.3,0-6.06-.54-8.28-2.23-.54,4.41-1.11,8.82-2.23,13.77-9.36,47.4-38.04,66.15-85.48,66.15h-13.07c-1.11,0-1.65,0-2.23,1.65l-8.28,40.27c-1.65,8.28-7.71,13.23-16.53,13.23h-29.76c-9.36,0-15.46-7.17-13.77-16.53l33.1-160.45c2.23-8.82,8.28-13.23,16.53-13.77h58.98c31.45.04,52.38,8.86,60.09,29.26h0ZM246.61,407.69l13.23-62.85c8.82-44.1,40.8-66.73,86.01-66.73,41.92,0,68.91,20.4,62.32,63.39-1.11,7.17-6.64,12.12-13.23,13.23l-30.87,6.64h0c-9.93,1.65-18.18-5.52-17.64-15.46v-.54c1.11-8.28-1.11-9.36-9.36-9.36-3.87,0-8.82.54-12.12,3.3-4.95,4.41-6.64,15.99-8.28,22.05l-7.17,35.86c-1.11,3.87-3.87,17.1-1.11,20.4,1.11,2.23,6.64,2.23,8.28,2.23,10.47,0,13.77-3.87,17.1-13.23,2.76-8.28,11.58-14.34,20.4-12.12l28.69,6.64c7.71,1.65,11.58,8.28,9.93,15.99-11.05,41.34-42.99,60.67-84.9,60.67-46.41-.08-70.68-24.36-61.29-70.11h0ZM474.86,436.38h-21.51c-1.65,0-2.23,0-2.23,1.65l-4.95,22.05c-1.65,8.28-7.71,13.23-16.53,13.23h-29.76c-9.93,0-15.46-7.71-13.23-17.64l22.05-106.42c1.11-5.52,2.23-10.47,3.87-15.99,12.12-40.27,40.27-55.15,81.61-55.15,21.51,0,47.4,3.87,57.91,25.35,6.64,14.88,4.41,33.1,1.11,48.51l-22.05,106.95c-1.65,8.82-7.71,14.34-17.1,14.34h-29.76c-9.36,0-15.46-6.64-13.23-16.53l3.79-20.36ZM932.47,349.25h40.27c9.93,0,15.46,6.64,13.23,15.99l-5.52,28.11c-1.65,8.82-8.28,13.77-16.53,13.77h-41.34c-1.65,0-2.23,0-2.23,1.65l-1.65,6.64h63.39c9.93,0,15.46,6.64,13.77,16.53l-6.06,28.11c-1.65,8.28-8.28,13.23-16.53,13.23h-111.36c-9.93,0-15.99-6.64-13.77-16.53l33.1-160.98c1.65-8.28,8.28-13.23,16.53-13.23h111.94c9.36,0,15.46,6.64,13.23,16.53l-5.52,28.11c-1.65,8.28-8.28,13.23-17.1,13.23h-63.97c-1.65,0-2.23.54-2.23,1.65l-1.65,7.21ZM1134.29,403.82l17.1,46.33c4.41,12.12-6.64,23.16-18.75,23.16h-30.33c-5.52,0-10.47-3.3-12.12-8.82l-15.99-46.33h-6.64c-1.65,0-2.76.54-2.76,1.65l-8.28,39.69c-1.65,8.28-8.82,13.77-17.1,13.77h-29.76c-9.36,0-15.46-7.17-13.77-16.53l33.1-160.45c1.65-8.28,8.82-13.77,17.1-13.77h57.91c48.51,0,71.67,20.4,61.2,69.49-4.45,20.4-12.74,39.69-30.91,51.81h0ZM1203.21,282.52h58.44c47.97,0,71.14,20.4,61.2,69.49-9.93,47.4-38.58,66.15-86.01,66.15h-12.69c-1.65,0-2.23,0-2.76,1.65l-8.28,40.27c-1.65,8.28-7.71,13.23-16.53,13.23h-29.76c-9.36,0-15.46-6.64-13.23-16.53l33.1-160.45c1.65-8.28,7.71-13.23,15.99-13.77h.54v-.04ZM1371.9,415.4h57.91c9.93,0,15.46,6.64,13.77,16.53l-6.06,28.11c-1.65,8.28-7.71,13.23-16.53,13.23h-104.77c-9.93,0-15.46-6.64-13.77-16.53l33.1-160.45c1.65-8.82,8.28-13.77,17.1-13.77h29.76c9.36,0,15.46,6.64,13.23,16.53l-23.74,116.35ZM1488.25,282.52h29.76c9.36,0,15.46,6.64,13.23,16.53l-20.4,98.71c-.54,3.87-3.3,17.1-1.11,20.4,1.65,1.65,6.64,1.65,8.82,1.65,3.87,0,8.82-.54,12.12-3.3,4.41-4.41,6.64-15.46,7.71-22.05l20.4-98.13c1.65-8.82,8.28-13.77,16.53-13.77h29.76c9.93,0,15.99,6.64,13.77,16.53l-23.16,111.94c-8.82,44.68-41.34,66.73-86.55,66.73s-70.56-24.28-61.2-69.49l23.16-111.94c1.77-8.82,8.37-13.81,17.19-13.81h0ZM1718.72,359.72c.54,0,1.11.54,1.65.54,23.7,12.69,37.51,30.87,31.45,58.98-2.23,11.05-12.12,24.81-20.4,32.52-18.75,18.18-43.56,25.35-69.49,25.35-20.94,0-44.1-4.95-56.79-23.16-8.28-11.05-9.93-25.92-8.28-39.69,1.11-7.71,6.64-12.69,14.34-14.34l31.45-6.06c1.65-.54,3.87-.54,4.95-.54-22.59-11.58-35.28-29.22-29.76-56.79,2.23-11.05,9.93-24.28,17.64-32.52,16.53-18.18,40.27-25.35,64.5-25.35,20.4,0,42.99,4.41,56.26,22.05,8.28,11.05,11.05,24.81,9.36,38.04h0c-1.11,8.28-6.64,13.23-14.34,14.34l-31.98,6.64s0,0-.54,0h0ZM1704.38,353.12c-.54-2.23-1.11-4.41-1.11-7.17,0-7.17-6.06-9.36-12.12-9.36-2.76,0-6.06.54-8.28,2.23-1.11.54-2.23,1.65-2.76,2.23,1.11,2.23,9.93,6.06,12.12,7.17,4.45,1.57,8.28,3.26,12.16,4.9h0ZM1655.87,397.22c2.23,2.76,3.3,6.64,2.76,11.05-.54,8.28,4.95,11.05,12.12,11.05,4.41,0,8.82-1.11,12.12-2.76,1.11-.54,4.41-2.76,4.41-3.87h0c-.54-2.76-8.82-6.06-11.05-7.17-6.59-2.76-13.77-5.52-20.36-8.28h0ZM493.61,341.54c-1.11-1.65-7.17-1.65-8.82-1.65-3.3,0-10.47,0-12.69,3.3-2.23,1.65-2.76,6.64-3.3,8.82l-5.52,26.46h21.51c1.65,0,2.23-.54,2.76-2.23l5.52-27.04c.54-1.07,1.07-6.59.54-7.67h0ZM651.84,341.54c-1.65-1.11-7.71-1.11-9.36-1.11h-14.34c-1.11,0-1.65,0-2.23,1.65l-3.87,18.18h13.77c10.47,0,13.23-.54,15.46-11.58.04-1.07,1.15-6.06.58-7.13h0ZM1076.92,360.29h12.69c10.47,0,13.23-.54,15.46-11.58.54-1.11,1.11-6.06.54-7.17-1.11-1.11-7.17-1.11-8.82-1.11h-13.23c-1.65,0-2.76,1.11-2.76,2.23l-3.87,17.64ZM1263.3,341.54c-1.65-1.11-7.71-1.11-8.82-1.11h-14.34c-1.65,0-2.23.54-2.76,1.65l-3.3,18.18h13.23c10.47,0,13.23-.54,15.46-11.58,0-1.07,1.07-6.06.54-7.13h0Z"></path><path class="cls-1" d="M253.79,409.34c-3.3,16.53-8.82,61.2,54.03,61.2,56.79,0,72.79-35.86,77.73-55.15,1.11-3.87-.54-6.64-4.41-7.17l-28.69-6.64c-4.95-1.11-9.93,2.23-11.58,7.71-4.41,11.05-9.36,17.64-24.28,17.64-19.29,0-18.18-11.58-14.34-30.87l7.17-36.39c4.41-19.29,7.71-30.87,27.57-30.87,14.34,0,17.64,6.06,17.1,17.1-.54,5.52,2.76,8.82,8.82,8.28l30.87-6.64c3.87-.54,6.64-3.3,7.17-7.17,2.76-19.29,1.65-55.15-55.15-55.15-62.85,0-75.55,44.68-78.84,61.2l-13.19,62.89ZM523.95,457.31c-1.11,5.52-4.41,8.82-9.93,8.82h-29.76c-4.95,0-7.17-2.76-6.06-7.71l4.41-22.05c1.11-4.95-1.11-7.17-6.64-7.17h-22.59c-4.95,0-8.28,2.23-9.36,7.17l-4.95,22.05c-.54,4.95-3.87,7.71-9.36,7.71h-29.76c-4.95,0-7.17-3.3-6.06-8.82l22.05-106.42c6.64-31.98,18.75-65.61,78.31-65.61s58.44,33.63,51.81,65.61l-22.13,106.42ZM500.21,350.9c2.76-12.12,1.65-18.18-15.46-18.18s-20.94,6.06-23.16,18.18l-6.06,27.04c-.54,4.95,1.65,7.71,6.64,7.71h22.59c5.52,0,8.82-2.76,9.93-7.71l5.52-27.04ZM591.75,289.69c-5.52.54-8.82,2.76-9.93,7.71l-33.1,160.98c-.54,4.95,1.65,7.71,6.64,7.71h29.76c4.95,0,8.28-2.76,9.36-7.71l8.28-40.27c1.11-4.95,4.41-7.71,9.36-7.71h13.23c46.86,0,70.02-18.75,78.31-60.09,8.82-41.34-6.64-60.67-53.5-60.67h-58.4v.04ZM621.5,367.42c-5.52,0-7.71-2.76-6.64-7.71l3.87-18.75c1.11-5.52,4.41-7.71,9.36-7.71h14.34c12.69,0,18.75,1.65,15.99,17.1-3.3,15.46-9.93,17.1-22.59,17.1h-14.34v-.04ZM764.89,340.96c1.11-5.52-1.11-7.71-6.64-7.71h-36.93c-4.95,0-7.71-2.76-6.64-7.71l6.06-28.11c1.11-4.95,4.41-7.71,9.36-7.71h136.17c4.95,0,7.17,2.76,6.06,7.71l-5.52,28.11c-1.11,4.95-4.41,7.71-9.93,7.71h-36.93c-4.95,0-8.28,2.23-9.36,7.71l-24.28,117.42c-1.11,4.95-4.41,7.71-9.93,7.71h-29.22c-5.52,0-7.71-2.76-6.64-7.71l24.36-117.42ZM1009.66,289.69c4.95,0,7.17,2.76,6.06,7.71l-5.52,28.11c-1.11,4.95-4.41,7.71-9.93,7.71h-63.97c-4.95,0-8.82,2.23-9.36,7.71l-1.65,7.71c-1.11,4.95,1.11,7.71,6.06,7.71h41.34c4.95,0,7.17,2.23,6.06,7.71l-5.52,28.11c-1.11,4.41-4.41,7.17-9.36,7.17h-41.34c-4.95,0-8.28,2.76-9.36,7.71l-1.65,8.28c-1.11,4.41,1.11,7.17,6.06,7.17h64.5c5.52,0,7.17,2.76,6.64,7.71l-6.06,28.11c-1.11,4.95-4.41,7.71-9.36,7.71h-111.4c-5.52,0-7.71-2.76-6.64-7.71l33.1-160.98c1.11-4.95,4.41-7.71,9.36-7.71h111.94v.08ZM1126.55,402.74c-.54-1.11,0-2.23,1.11-3.3,15.99-9.36,25.35-25.92,30.33-49.09,8.82-41.34-6.64-60.67-54.03-60.67h-57.91c-4.95,0-8.82,3.3-9.93,8.28l-33.1,160.45c-1.11,4.41,1.65,7.71,6.64,7.71h29.76c4.95,0,8.82-3.3,9.93-7.71l8.28-39.69c.54-4.95,4.95-8.28,9.93-8.28h10.47c.54,0,1.65.54,1.65,1.65l17.1,50.16c.54,2.76,2.76,3.87,5.52,3.87h30.33c8.28,0,13.77-7.17,11.58-13.77l-17.68-49.62ZM1096.79,333.26c12.69,0,18.75,1.65,15.46,17.1-2.76,15.46-9.93,17.1-22.59,17.1h-13.23c-4.95,0-7.71-3.3-6.64-7.71l3.87-18.75c.54-4.41,4.95-7.71,9.93-7.71h13.19v-.04ZM1203.21,290.27c-5.52,0-8.28,2.76-9.36,7.71l-33.1,160.45c-1.11,4.95,1.11,7.71,6.06,7.71h29.76c5.52,0,8.28-2.76,9.36-7.71l8.28-40.27c1.11-4.95,4.95-7.71,9.93-7.71h12.69c46.86,0,70.02-18.75,78.84-60.09,8.28-41.34-6.64-60.09-54.03-60.09h-58.44ZM1232.96,367.42c-4.95,0-7.71-2.76-6.64-7.71l3.87-18.75c1.11-4.95,4.41-7.71,9.93-7.71h14.34c12.69,0,18.75,1.65,15.46,17.1-3.3,15.46-9.93,17.1-22.59,17.1h-14.38v-.04ZM1381.83,290.27c5.52,0,7.71,2.23,6.64,7.17l-24.28,118c-1.11,4.41,1.65,7.17,6.64,7.17h58.98c5.52,0,7.71,2.76,6.64,7.71l-6.06,28.11c-1.11,4.95-3.87,7.71-9.36,7.71h-104.77c-4.95,0-7.71-2.76-6.64-7.71l33.1-160.98c1.11-4.95,4.41-7.17,9.93-7.17h29.18ZM1488.25,290.27c-5.52,0-8.82,2.23-9.93,7.17l-23.16,111.94c-3.3,16.53-8.82,61.2,54.03,61.2s76.08-44.68,79.38-61.2l23.16-111.94c1.11-4.95-1.11-7.17-6.64-7.17h-29.76c-4.95,0-8.28,2.23-9.36,7.17l-20.4,98.71c-3.87,19.29-7.71,31.45-27.04,31.45s-18.75-12.12-14.88-31.45l20.4-98.71c1.11-4.95-1.11-7.17-6.64-7.17h-29.18ZM1749.59,345.95c4.95-.54,7.71-3.3,8.82-8.28,1.65-18.18-3.87-51.81-58.44-51.81-59.56,0-73.32,44.68-74.97,52.38-11.58,57.91,68.91,52.92,70.02,74.43,0,6.64-11.05,13.77-24.28,13.77-12.12,0-20.94-6.64-19.29-18.75.54-5.52-1.65-7.71-7.17-6.64l-31.45,6.06c-4.95,1.11-8.28,3.87-8.82,8.28-2.76,19.87,2.23,54.57,57.91,54.57,62.85,0,81.07-44.68,82.72-52.38,12.12-57.91-72.21-57.33-71.67-76.62,0-6.06,7.71-11.58,18.18-11.58,12.12,0,19.87,6.64,19.29,16.53,0,4.95,2.23,7.71,7.71,6.64l31.45-6.59Z"></path><path class="cls-3" d="M1784.87,284.75l4.41-27.04,11.05,2.23c2.76.54,4.95,1.11,6.06,1.65,1.11.54,2.23,1.65,2.76,2.76,0,1.65.54,3.3,0,4.41,0,2.23-1.11,3.87-2.23,4.95-1.65,1.11-3.3,1.65-5.52,1.65,1.11,1.11,1.65,1.65,2.23,2.76.54,1.11,1.65,2.76,2.23,4.95l2.23,5.52-6.06-.54-2.76-6.64c-1.11-2.23-1.65-3.87-2.23-4.41,0-.54-.54-1.11-1.11-1.65-.54,0-1.65-.54-2.76-.54h-1.11l-1.65,11.05-5.52-1.11ZM1792.62,270.4l3.87.54c2.76.54,4.41.54,4.95.54.54-.54,1.11-.54,1.65-1.11.54-.54.54-1.11.54-1.65.54-1.11.54-2.23,0-2.76s-1.11-1.11-1.65-1.11-1.65-.54-3.87-.54l-3.87-1.11-1.61,7.21Z"></path><path class="cls-3" d="M1801.97,250c6.64,1.11,11.58,4.41,15.46,9.36,3.3,4.95,4.95,11.58,3.87,17.64-1.11,6.64-4.41,12.12-9.36,15.46-4.95,3.3-11.05,4.95-17.64,3.87-6.64-1.11-11.58-4.41-15.46-9.36-3.3-4.95-4.95-11.05-3.87-17.64,1.11-6.06,4.41-11.58,9.36-14.88,4.95-3.92,11-5.56,17.64-4.45h0ZM1814.67,261.58c-3.3-4.41-7.71-7.17-13.23-8.28-5.52-.54-11.05.54-14.88,3.87-4.41,2.76-7.17,7.17-8.28,12.69-1.11,5.52.54,11.05,3.3,14.88,3.3,4.41,7.71,7.17,13.23,8.28,5.52,1.11,11.05-.54,14.88-3.3,4.41-3.3,7.17-7.71,8.28-13.23.54-5.56-.54-10.51-3.3-14.92h0Z"></path><path class="cls-4" d="M.69,376.82c0-28.11,7.17-56.26,19.29-79.96,12.12-23.7,28.11-44.1,45.21-61.74,17.1-17.64,35.86-33.1,55.15-46.86,19.29-13.77,39.69-25.92,60.09-36.93,40.8-22.05,83.25-39.69,125.7-55.15,42.99-15.46,86.55-28.11,130.11-39.15C611.57,14.58,790.77-.87,968.86.24c89.31.54,178.09,6.06,266.86,15.99,88.2,9.93,176.44,25.35,262.99,46.86,86.01,21.51,171.45,49.62,251.41,91.54,39.15,20.94,77.73,45.75,110.29,77.73,15.99,16.53,30.87,34.17,41.92,55.15,10.47,20.94,17.64,44.1,17.64,68.38.54,23.7-6.06,47.4-16.53,68.38-9.93,20.94-24.81,39.15-40.27,55.68-31.98,33.1-69.49,58.98-108.6,80.49-78.84,43.56-163.75,73.9-249.22,97.02-86.01,23.16-173.68,40.8-261.88,52.38-88.2,12.12-177.55,19.29-266.29,22.05-178.09,4.95-357.83-6.06-533.73-45.21-44.1-9.93-87.66-21.51-131.23-35.86-42.99-14.34-85.48-30.87-126.82-52.38-20.94-10.47-40.8-22.59-60.67-35.86-19.87-13.27-39.15-28.11-56.79-45.21-17.1-17.64-33.63-37.51-46.33-61.2-12.12-23.12-20.36-51.23-20.94-79.34h0ZM71.29,376.28h0c0,15.99,4.41,31.98,12.69,47.4,8.28,15.46,19.87,30.33,33.63,44.1,27.57,27.04,62.32,50.16,99.24,70.02,74.43,39.15,157.15,66.15,240.94,87.13,84.37,20.94,170.38,35.86,256.93,45.75,86.55,9.89,174.21,14.88,261.88,15.99,174.79,1.11,351.23-13.77,521.57-55.68,42.45-10.47,84.9-22.59,125.7-37.51,41.34-14.34,81.6-31.45,120.18-52.38,18.75-9.93,37.51-21.51,55.15-33.63,17.64-12.69,34.17-26.46,49.09-41.92,14.88-14.88,28.11-31.98,36.93-50.74,9.36-18.18,14.88-38.58,14.88-58.98-.54-20.4-6.06-40.27-15.99-58.98-9.93-18.18-23.16-34.74-38.04-49.62-15.46-14.88-32.52-28.69-50.16-40.27-18.18-12.12-36.93-23.16-56.26-33.1-38.58-19.87-79.38-35.86-120.76-49.62-41.34-13.77-83.79-25.35-126.82-34.74-170.92-38.04-347.36-49.09-522.68-44.1-87.66,2.76-174.79,9.93-261.34,22.05-86.55,11.58-172.03,28.11-255.82,51.27-83.25,22.59-165.39,51.81-238.76,92.61-36.39,20.4-71.14,44.1-98.13,72.21-13.23,13.77-24.81,29.22-32.52,44.68-7.71,15.5-11.54,32.06-11.54,48.06h0Z"></path><path class="cls-2" d="M253.79,409.34c-3.3,16.53-8.82,61.2,54.03,61.2,56.79,0,72.79-35.86,77.73-55.15,1.11-3.87-.54-6.64-4.41-7.17l-28.69-6.64c-4.95-1.11-9.93,2.23-11.58,7.71-4.41,11.05-9.36,17.64-24.28,17.64-19.29,0-18.18-11.58-14.34-30.87l7.17-36.39c4.41-19.29,7.71-30.87,27.57-30.87,14.34,0,17.64,6.06,17.1,17.1-.54,5.52,2.76,8.82,8.82,8.28l30.87-6.64c3.87-.54,6.64-3.3,7.17-7.17,2.76-19.29,1.65-55.15-55.15-55.15-62.85,0-75.55,44.68-78.84,61.2l-13.19,62.89ZM523.95,457.31c-1.11,5.52-4.41,8.82-9.93,8.82h-29.76c-4.95,0-7.17-2.76-6.06-7.71l4.41-22.05c1.11-4.95-1.11-7.17-6.64-7.17h-22.59c-4.95,0-8.28,2.23-9.36,7.17l-4.95,22.05c-.54,4.95-3.87,7.71-9.36,7.71h-29.76c-4.95,0-7.17-3.3-6.06-8.82l22.05-106.42c6.64-31.98,18.75-65.61,78.31-65.61s58.44,33.63,51.81,65.61l-22.13,106.42ZM500.21,350.9c2.76-12.12,1.65-18.18-15.46-18.18s-20.94,6.06-23.16,18.18l-6.06,27.04c-.54,4.95,1.65,7.71,6.64,7.71h22.59c5.52,0,8.82-2.76,9.93-7.71l5.52-27.04ZM591.75,289.69c-5.52.54-8.82,2.76-9.93,7.71l-33.1,160.98c-.54,4.95,1.65,7.71,6.64,7.71h29.76c4.95,0,8.28-2.76,9.36-7.71l8.28-40.27c1.11-4.95,4.41-7.71,9.36-7.71h13.23c46.86,0,70.02-18.75,78.31-60.09,8.82-41.34-6.64-60.67-53.5-60.67h-58.4v.04ZM621.5,367.42c-5.52,0-7.71-2.76-6.64-7.71l3.87-18.75c1.11-5.52,4.41-7.71,9.36-7.71h14.34c12.69,0,18.75,1.65,15.99,17.1-3.3,15.46-9.93,17.1-22.59,17.1h-14.34v-.04ZM764.89,340.96c1.11-5.52-1.11-7.71-6.64-7.71h-36.93c-4.95,0-7.71-2.76-6.64-7.71l6.06-28.11c1.11-4.95,4.41-7.71,9.36-7.71h136.17c4.95,0,7.17,2.76,6.06,7.71l-5.52,28.11c-1.11,4.95-4.41,7.71-9.93,7.71h-36.93c-4.95,0-8.28,2.23-9.36,7.71l-24.28,117.42c-1.11,4.95-4.41,7.71-9.93,7.71h-29.22c-5.52,0-7.71-2.76-6.64-7.71l24.36-117.42ZM1009.66,289.69c4.95,0,7.17,2.76,6.06,7.71l-5.52,28.11c-1.11,4.95-4.41,7.71-9.93,7.71h-63.97c-4.95,0-8.82,2.23-9.36,7.71l-1.65,7.71c-1.11,4.95,1.11,7.71,6.06,7.71h41.34c4.95,0,7.17,2.23,6.06,7.71l-5.52,28.11c-1.11,4.41-4.41,7.17-9.36,7.17h-41.34c-4.95,0-8.28,2.76-9.36,7.71l-1.65,8.28c-1.11,4.41,1.11,7.17,6.06,7.17h64.5c5.52,0,7.17,2.76,6.64,7.71l-6.06,28.11c-1.11,4.95-4.41,7.71-9.36,7.71h-111.4c-5.52,0-7.71-2.76-6.64-7.71l33.1-160.98c1.11-4.95,4.41-7.71,9.36-7.71h111.94v.08ZM1126.55,402.74c-.54-1.11,0-2.23,1.11-3.3,15.99-9.36,25.35-25.92,30.33-49.09,8.82-41.34-6.64-60.67-54.03-60.67h-57.91c-4.95,0-8.82,3.3-9.93,8.28l-33.1,160.45c-1.11,4.41,1.65,7.71,6.64,7.71h29.76c4.95,0,8.82-3.3,9.93-7.71l8.28-39.69c.54-4.95,4.95-8.28,9.93-8.28h10.47c.54,0,1.65.54,1.65,1.65l17.1,50.16c.54,2.76,2.76,3.87,5.52,3.87h30.33c8.28,0,13.77-7.17,11.58-13.77l-17.68-49.62ZM1096.79,333.26c12.69,0,18.75,1.65,15.46,17.1-2.76,15.46-9.93,17.1-22.59,17.1h-13.23c-4.95,0-7.71-3.3-6.64-7.71l3.87-18.75c.54-4.41,4.95-7.71,9.93-7.71h13.19v-.04ZM1203.21,290.27c-5.52,0-8.28,2.76-9.36,7.71l-33.1,160.45c-1.11,4.95,1.11,7.71,6.06,7.71h29.76c5.52,0,8.28-2.76,9.36-7.71l8.28-40.27c1.11-4.95,4.95-7.71,9.93-7.71h12.69c46.86,0,70.02-18.75,78.84-60.09,8.28-41.34-6.64-60.09-54.03-60.09h-58.44ZM1232.96,367.42c-4.95,0-7.71-2.76-6.64-7.71l3.87-18.75c1.11-4.95,4.41-7.71,9.93-7.71h14.34c12.69,0,18.75,1.65,15.46,17.1-3.3,15.46-9.93,17.1-22.59,17.1h-14.38v-.04ZM1381.83,290.27c5.52,0,7.71,2.23,6.64,7.17l-24.28,118c-1.11,4.41,1.65,7.17,6.64,7.17h58.98c5.52,0,7.71,2.76,6.64,7.71l-6.06,28.11c-1.11,4.95-3.87,7.71-9.36,7.71h-104.77c-4.95,0-7.71-2.76-6.64-7.71l33.1-160.98c1.11-4.95,4.41-7.17,9.93-7.17h29.18ZM1488.25,290.27c-5.52,0-8.82,2.23-9.93,7.17l-23.16,111.94c-3.3,16.53-8.82,61.2,54.03,61.2s76.08-44.68,79.38-61.2l23.16-111.94c1.11-4.95-1.11-7.17-6.64-7.17h-29.76c-4.95,0-8.28,2.23-9.36,7.17l-20.4,98.71c-3.87,19.29-7.71,31.45-27.04,31.45s-18.75-12.12-14.88-31.45l20.4-98.71c1.11-4.95-1.11-7.17-6.64-7.17h-29.18ZM1749.59,345.95c4.95-.54,7.71-3.3,8.82-8.28,1.65-18.18-3.87-51.81-58.44-51.81-59.56,0-73.32,44.68-74.97,52.38-11.58,57.91,68.91,52.92,70.02,74.43,0,6.64-11.05,13.77-24.28,13.77-12.12,0-20.94-6.64-19.29-18.75.54-5.52-1.65-7.71-7.17-6.64l-31.45,6.06c-4.95,1.11-8.28,3.87-8.82,8.28-2.76,19.87,2.23,54.57,57.91,54.57,62.85,0,81.07-44.68,82.72-52.38,12.12-57.91-72.21-57.33-71.67-76.62,0-6.06,7.71-11.58,18.18-11.58,12.12,0,19.87,6.64,19.29,16.53,0,4.95,2.23,7.71,7.71,6.64l31.45-6.59Z"></path></svg>